<svg xmlns="http://www.w3.org/2000/svg" viewBox="0 0 163.05396 163.05396">
  <defs>
    <style>
      .e84213fb-3262-4fc7-8c8b-83dd9776b3b3 {
        fill: #f89522;
      }
    </style>
  </defs>
  <g id="aecad05a-dbe3-423e-9622-4d3b0dabb14f" data-name="Layer 2">
    <g id="ac8f923a-f429-422c-aa68-86676f47743b" data-name="Layer 1">
      <g>
        <path class="e84213fb-3262-4fc7-8c8b-83dd9776b3b3" d="M69.99327,107.90869v-4.6674a8.678,8.678,0,0,0-2.23148-17.12286,4.35977,4.35977,0,1,1,4.4629-4.35855h4.46383a8.74771,8.74771,0,0,0-6.69525-8.40659V68.68506H65.53032v4.66823a8.67826,8.67826,0,0,0,2.23147,17.12286,4.35937,4.35937,0,1,1-4.463,4.35855H58.8376a8.74427,8.74427,0,0,0,6.69272,8.40659v4.6674Z"/>
        <path d="M151.16,111.418V70.74878a7.849,7.849,0,0,0-7.817-7.86084H97.2821A49.78991,49.78991,0,0,0,49.519,0a49.7601,49.7601,0,0,0-2.608,99.438v23.71582a7.85036,7.85036,0,0,0,7.81909,7.86108h49.653c-.079.865-.135,1.73511-.135,2.62012a28.6687,28.6687,0,1,0,46.912-22.217m-5.212-40.66919v37.24414a28.33933,28.33933,0,0,0-29.464,2.06006H52.124V70.74878a2.61791,2.61791,0,0,1,2.60608-2.62085H143.343a2.61823,2.61823,0,0,1,2.605,2.62085M31.27405,49.084a51.87419,51.87419,0,0,1,2.235-15.02H65.525a51.20311,51.20311,0,0,1,.329,28.824H33.166a52.03332,52.03332,0,0,1-1.892-13.804M35.4,28.824a51.94551,51.94551,0,0,1,5.696-10.104L49.519,7.075,57.941,18.72a52.05268,52.05268,0,0,1,5.696,10.104Zm11.99305,39.304a7.81067,7.81067,0,0,0-.48206,2.62085v17.5481L39.89807,77.721a51.96111,51.96111,0,0,1-4.991-9.593Zm44.442-5.24h-20.578a56.39731,56.39731,0,0,0-.316-28.824H90.92a44.09077,44.09077,0,0,1,.915,28.824m-3.244-34.064H69.239a56.93643,56.93643,0,0,0-7.08093-13.188l-7.259-10.03321A44.37425,44.37425,0,0,1,88.59106,28.824M44.14,5.60278,36.88,15.63794a56.94467,56.94467,0,0,0-7.08,13.186h-19.355A44.37246,44.37246,0,0,1,44.14,5.60278M8.11511,34.064h19.981a56.39784,56.39784,0,0,0-.314,28.824H7.176a44.31986,44.31986,0,0,1,.93908-28.824m1.074,34.064H29.358a57.03761,57.03761,0,0,0,6.20606,12.499l8.876,13.387a44.38622,44.38622,0,0,1-35.251-25.886m45.541,57.647a2.61608,2.61608,0,0,1-2.60608-2.62109V115.293h58.694a28.849,28.849,0,0,0-5.46,10.48193Zm78.187,31.44287A23.58274,23.58274,0,1,1,156.37305,133.635a23.54586,23.54586,0,0,1-23.45594,23.58276"/>
        <polygon points="129.956 142.675 121.728 134.403 118.043 138.108 130.665 150.798 150.688 122.035 146.421 119.032 129.956 142.675"/>
        <polygon points="28.668 151.383 11.893 136.392 28.668 123.272 28.668 131.015 41.699 131.015 41.699 125.775 33.881 125.775 33.881 112.555 3.745 136.12 33.881 163.054 33.881 149.357 104.248 149.357 104.248 144.117 28.668 144.117 28.668 151.383"/>
        <polygon points="138.129 21.078 154.905 34.198 138.129 49.191 138.129 41.925 104.248 41.925 104.248 47.166 132.917 47.166 132.917 60.862 163.054 33.931 132.917 10.366 132.917 23.583 99.036 23.583 99.036 28.824 138.129 28.824 138.129 21.078"/>
        <path d="M99.666,76.33362a7.3002,7.3002,0,0,0-7.27929,7.27855H88.74852v3.6391h3.63819v3.63945H88.74852v3.63911h3.63819a7.2789,7.2789,0,0,0,14.55779,0V92.7101h-3.63888v1.81973a3.63965,3.63965,0,0,1-7.27929,0H99.666V90.89072H96.02633V87.25127H99.666v-3.6391H96.02633a3.63965,3.63965,0,0,1,7.27929,0v1.82008h3.63888V83.61217a7.3,7.3,0,0,0-7.2785-7.27855"/>
        <path d="M134.18124,97.75167H123.74178a7.444,7.444,0,0,0,1.04531-3.75806V90.23537h3.7568V86.47782h-3.7568V83.16317a4.20019,4.20019,0,0,1,6.0789-3.75824l2.47287,1.23606,1.68262-3.36157-2.47358-1.23606a7.95954,7.95954,0,0,0-11.519,7.11981v3.31465H117.2699v3.75755h3.75895v3.75824a3.76289,3.76289,0,0,1-3.75895,3.75806v3.75825h16.91134Z"/>
      </g>
    </g>
  </g>
</svg>
