<svg xmlns="http://www.w3.org/2000/svg" viewBox="0 0 157.89398 157.87061">
  <defs>
    <style>
      .a5a4d4f4-72ac-427a-9ee1-1c2d31241dcc {
        fill: #f89522;
      }
    </style>
  </defs>
  <g id="b7f557dc-9631-41e9-a2ce-924d738e0a6e" data-name="Layer 2">
    <g id="eb41b9be-5c89-4061-9275-6a024cc46914" data-name="Layer 1">
      <g>
        <path d="M147.708,53.45654V50.90967h10.186V44.35156L84.964,1.59961a12.1748,12.1748,0,0,0-12.065,0L0,44.35156v6.55811H10.186v2.54687a7.613,7.613,0,0,0,5.094,7.16211v72.2627a7.60709,7.60709,0,0,0-5.094,7.16308v2.5459H7.639A7.66258,7.66258,0,0,0,0,150.23047v7.64014H157.894v-7.64014a7.662,7.662,0,0,0-7.639-7.64014h-2.547v-2.5459a7.57709,7.57709,0,0,0-5.093-7.16308V60.61865a7.57678,7.57678,0,0,0,5.093-7.16211m-20.373,7.64014h10.187v71.30811H127.335Zm-10.188,78.94775v2.5459h-7.703a12.52746,12.52746,0,0,0,2.61-7.63965V58.5498a12.58688,12.58688,0,0,0-2.61-7.64013h7.703v2.54687a7.613,7.613,0,0,0,5.094,7.16211v72.2627a7.578,7.578,0,0,0-5.094,7.16308M30.56,132.40381H20.372V61.0957H30.56Zm5.093.47754V60.61865a7.60676,7.60676,0,0,0,5.094-7.16211V50.90967h7.704a12.52479,12.52479,0,0,0-2.61,7.64013v76.40088a12.58038,12.58038,0,0,0,2.61,7.63965H40.747v-2.5459a7.57663,7.57663,0,0,0-5.094-7.16308M99.321,45.81641H27.25l51.697-30.147,51.698,30.147ZM50.933,134.95068V58.5498a7.66334,7.66334,0,0,1,7.641-7.64013H99.321a7.66247,7.66247,0,0,1,7.64,7.64013v76.40088a7.66237,7.66237,0,0,1-7.64,7.63965H58.574a7.66324,7.66324,0,0,1-7.641-7.63965m91.682-81.49414a2.55427,2.55427,0,0,1-2.547,2.54688h-15.28a2.55426,2.55426,0,0,1-2.547-2.54688V50.90967h20.374ZM75.477,6.02441a6.87275,6.87275,0,0,1,6.909,0l67.901,39.792h-9.551L78.947,9.74854,17.127,45.81641H7.576ZM35.653,50.90967v2.54687a2.5534,2.5534,0,0,1-2.546,2.54688H17.827a2.55426,2.55426,0,0,1-2.547-2.54688V50.90967ZM15.28,140.04443a2.55425,2.55425,0,0,1,2.547-2.54687h15.28a2.55339,2.55339,0,0,1,2.546,2.54687v2.5459H15.28Zm137.52194,10.186v2.54687H5.094v-2.54687a2.553,2.553,0,0,1,2.545-2.5459h142.616a2.55469,2.55469,0,0,1,2.547,2.5459M122.241,142.59033v-2.5459a2.55425,2.55425,0,0,1,2.547-2.54687h15.28a2.55426,2.55426,0,0,1,2.547,2.54687v2.5459Z"/>
        <path d="M99.32111,35.62939a2.54664,2.54664,0,1,1-2.547,2.54737,2.5474,2.5474,0,0,1,2.547-2.54737"/>
        <path d="M58.574,35.62939a2.54664,2.54664,0,1,1-2.547,2.54737,2.54654,2.54654,0,0,1,2.547-2.54737"/>
        <path d="M56.02719,71.28271h5.093v5.09278h-5.093Zm0,10.187h5.093V86.5625h-5.093Zm0,10.187h5.093v5.09277h-5.093Zm40.747-20.374h5.094v5.09278h-5.094Zm0,10.187h5.094V86.5625h-5.094Zm0,10.187h5.094v5.09277h-5.094Z"/>
        <path class="a5a4d4f4-72ac-427a-9ee1-1c2d31241dcc" d="M82.30872,120.02808v-5.501a10.22781,10.22781,0,0,0-2.63-20.18091,5.1384,5.1384,0,1,1,5.26-5.137h5.261a10.31,10.31,0,0,0-7.891-9.908v-5.502h-5.26v5.502a10.22815,10.22815,0,0,0,2.63,20.18091,5.13793,5.13793,0,1,1-5.26,5.137h-5.258a10.306,10.306,0,0,0,7.888,9.908v5.501Z"/>
      </g>
    </g>
  </g>
</svg>
