<svg xmlns="http://www.w3.org/2000/svg" viewBox="0 0 162.98804 162.98828">
  <defs>
    <style>
      .b294a8e9-7a36-4f32-a5c9-b4a5c413fd41 {
        fill: #f89522;
      }
    </style>
  </defs>
  <g id="f08de9c5-0aac-4145-b1a4-c1bf98f5bea1" data-name="Layer 2">
    <g id="ec302d05-9140-4b76-9b51-17f15b55ac06" data-name="Layer 1">
      <g>
        <path d="M126.18811,149.84082a2.642,2.642,0,1,1-2.64209-2.64258,2.63573,2.63573,0,0,1,2.64209,2.64258"/>
        <path d="M162.988,60.45215a39.4825,39.4825,0,0,0-36.79993-39.31494V0H0V141.94629H110.39905v7.895a13.14752,13.14752,0,0,0,26.295,0V110.39893H131.441V99.09814a39.47613,39.47613,0,0,0,31.547-38.646m-5.252,0A34.18953,34.18953,0,1,1,123.546,26.29541a34.23661,34.23661,0,0,1,34.19006,34.15674m-47.337,49.94678v26.29443H5.25208V5.252H120.936V21.169a39.42159,39.42159,0,0,0-5.25293,77.96142v11.30078h-5.28406Zm21.042,39.44238a7.89447,7.89447,0,0,1-15.78894,0v-34.1582h15.757v34.1582Zm-5.25293-39.44238H120.936V99.73438c.859.064,1.751.12792,2.642.12792s1.7511-.064,2.64209-.12792v10.66455Z"/>
        <rect x="73.59912" y="21.0415" width="5.25305" height="5.25293"/>
        <rect x="57.84119" y="44.69336" width="21.04199" height="5.25293"/>
        <rect x="10.50415" y="10.50439" width="68.34802" height="5.25195"/>
        <rect x="57.84119" y="65.73535" width="21.04199" height="5.25293"/>
        <rect x="57.84119" y="55.19971" width="21.04199" height="5.25195"/>
        <rect x="10.50415" y="21.0415" width="57.84204" height="5.25293"/>
        <rect x="57.84119" y="76.2417" width="21.04199" height="5.25195"/>
        <polygon points="47.082 37.786 42.243 35.749 30.624 63.699 25.499 58.574 21.774 62.298 32.438 72.962 47.082 37.786"/>
        <polygon points="30.624 113.678 25.53 108.553 21.806 112.277 32.471 122.941 47.114 87.765 42.275 85.728 30.624 113.678"/>
        <polygon class="b294a8e9-7a36-4f32-a5c9-b4a5c413fd41" points="131.727 46.126 119.916 69.748 114.505 66.15 111.577 70.512 121.955 77.419 136.439 48.483 131.727 46.126"/>
        <rect x="57.84119" y="105.14551" width="31.54797" height="5.25293"/>
        <rect x="57.84119" y="94.6416" width="31.54797" height="5.25195"/>
        <rect x="57.84119" y="126.1875" width="31.54797" height="5.25293"/>
        <rect x="57.84119" y="115.68359" width="31.54797" height="5.25195"/>
      </g>
    </g>
  </g>
</svg>
