<?xml version="1.0" encoding="utf-8"?>
<!-- Generator: Adobe Illustrator 25.2.0, SVG Export Plug-In . SVG Version: 6.00 Build 0)  -->
<svg version="1.1" id="e1a269dd-82d1-4eb1-be3f-f8ccb1986ce1"
	 xmlns="http://www.w3.org/2000/svg" xmlns:xlink="http://www.w3.org/1999/xlink" x="0px" y="0px"
	 viewBox="0 0 130.4468079 40.6110458" style="enable-background:new 0 0 130.4468079 40.6110458;" xml:space="preserve">
<style type="text/css">
	.st0{fill:#131210;}
	.st1{fill:url(#Ellipse_1_1_);}
	.st2{fill:#151311;}
	.st3{opacity:0.7;fill:#131210;enable-background:new    ;}
</style>
<g>
	<g id="Group_7_28_" transform="translate(48.867 6.229)">
		<g id="Group_4_28_" transform="translate(0 4.536)">
			<g id="Group_1_28_">
				<path id="Path_1_28_" class="st0" d="M20.1880627,20.5338097h-4.4166031V4.5660949L10.420577,18.9200516h-4.161799
					L1.162699,4.651031v15.8827801h-4.1617975V-4.1821747h5.6906223l6.0303602,16.8170624l6.2002287-16.8170624h5.2659502
					V20.5338097L20.1880627,20.5338097z"/>
			</g>
			<g id="Group_2_28_" transform="translate(21.002)">
				<path id="Path_2_28_" class="st0" d="M13.3718481,20.5338097H8.7004414V-0.3601152H0.4617797v-3.8220594h21.2336636v3.8220596
					h-8.2386627L13.3718481,20.5338097L13.3718481,20.5338097z"/>
			</g>
			<g id="Group_3_28_" transform="translate(40.174)">
				<path id="Path_3_28_" class="st0" d="M8.2752171,20.5338097H3.6038113V-4.1821747h14.3539581v3.8220596H8.2752171v6.4550343
					h8.1537266v3.7371244H8.2752171V20.5338097L8.2752171,20.5338097z"/>
			</g>
		</g>
		<g id="Group_6_28_" transform="translate(40.887)">
			<g id="Group_5_28_">
				<path id="Path_4_28_" class="st0" d="M24.475256,0.3232492h-5.945425l6.3701,11.4661789
					c1.189085-1.7836285,2.2932358-3.4823217,3.1425819-5.0111446L24.475256,0.3232492z"/>
				<path id="Path_5_28_" class="st0" d="M32.2892456,25.0392323h5.9454269L30.8453598,11.874361
					c-1.1041546,1.5288229-2.2932377,2.9727125-3.5672569,4.4166031L32.2892456,25.0392323z"/>
				<path id="Path_6_28_" class="st0" d="M33.5632668-3.2440064c-1.1890869,3.8220596-2.8877811,7.4742498-5.0111465,10.8716364
					c-0.9342804,1.5288239-1.9534969,3.2275162-3.2275162,5.0111446
					c-5.9454269,8.323597-13.2498093,15.7129135-21.5734024,21.7432709
					c8.6633358-5.0111465,16.4773254-11.4661789,23.1871605-18.9404297c1.189085-1.4438896,2.3781681-2.8877773,3.4823227-4.4166021
					c3.6521835-4.926209,6.6249008-10.2770929,8.9181366-15.9677143L33.5632668-3.2440064z"/>
			</g>
		</g>
	</g>
	<g id="Group_13_28_">
		
			<radialGradient id="Ellipse_1_1_" cx="-784.475647" cy="791.2483521" r="0.7090005" gradientTransform="matrix(30.2059994 0 0 -30.2059994 23721.2558594 23915.6738281)" gradientUnits="userSpaceOnUse">
			<stop  offset="0.125" style="stop-color:#FFE300"/>
			<stop  offset="0.634" style="stop-color:#F17F21"/>
		</radialGradient>
		<circle id="Ellipse_1_28_" class="st1" cx="21.4532185" cy="20.0720558" r="14.2377882"/>
		<g id="Group_10_28_" transform="translate(5.691)">
			<g id="Group_9_28_">
				<path id="Path_37_28_" class="st2" d="M2.8250906,15.3261271c3.5078604-2.544919,9.8357668-6.8093758,15.7509823-9.1479502
					c5.57131-2.2010107,10.798708-2.7512634,12.8621559,1.5131946c0.962944,2.0634475-0.1375637,4.5395846-2.3385754,7.1532845
					c0.2751274,0.6878157,0.481472,1.4444141,0.6878166,2.2010117c4.8834896-4.2644577,8.1162243-8.9416065,5.8464336-12.7245932
					c-3.4390793-5.64009-11.7616482-2.8888264-19.4651871,1.5131946c-4.6771469,2.8888268-9.1479492,5.915216-13.2748442,9.2855148
					l0,0c-1.0317239,0.8253794-1.7883211,1.4444141-2.3385739,1.9258842
					C1.0367694,16.6329765,1.7933669,16.0139427,2.8250906,15.3261271L2.8250906,15.3261271z"/>
			</g>
			<path id="Path_38_28_" class="st3" d="M31.3694477,7.7601533c-2.063448-4.2644577-7.2908459-3.7829869-12.8621559-1.5131946
				c-5.8464346,2.3385744-12.1743412,6.6030312-15.7509823,9.1479502v0.0687819
				C6.608078,12.7124281,13.761363,8.0352802,19.3326721,6.4533033c2.8200436-0.756597,5.2273979-0.756597,6.6030293,0.756598
				c0.6190357,0.7565975,1.0317249,1.6507573,1.1005058,2.6137004c0.068779,0.6190338,0.1375637,1.1692867,0.068779,1.7883205
				c0.7565975,1.031724,1.3756332,2.1322289,1.8571033,3.3702974C31.231884,12.2997379,32.3323898,9.8236008,31.3694477,7.7601533z"
				/>
		</g>
		<g id="Group_12_28_" transform="translate(0 22.978)">
			<g id="Group_11_28_">
				<path id="Path_39_28_" class="st2" d="M34.3841553,1.8248528c-3.5078583,2.5449181-9.8357639,6.7405958-15.7509804,9.1479511
					C13.0618658,13.1738148,7.834466,13.7240667,5.771018,9.4596081c-0.9629421-2.0634475,0.1375628-4.608366,2.3385735-7.1532845
					c-0.275126-0.6878158-0.4814711-1.4444134-0.6878157-2.2010102C2.607065,4.3009901-0.6256694,8.978138,1.6441228,12.6923437
					c3.439079,5.64009,11.761651,2.8888264,19.4651871-1.513196c4.608366-2.6824808,9.0103874-5.7776527,13.2060623-9.0791683l0,0
					c1.031723-0.8253788,1.7883224-1.4444128,2.3385773-1.9258844C36.1036949,0.5867844,35.3470955,1.137037,34.3841553,1.8248528
					L34.3841553,1.8248528z"/>
			</g>
			<path id="Path_40_28_" class="st3" d="M5.7710176,9.3908281c2.063448,4.2644587,7.2908483,3.7829866,12.8621578,1.513195
				c5.8464355-2.3385735,12.1743393-6.6030326,15.7509804-9.1479502V1.6872905
				c-3.8517666,2.7512631-11.0050526,7.428411-16.5763607,9.0103884c-2.8200445,0.7565985-5.2273998,0.7565985-6.6030321-0.7565975
				c-0.6190338-0.7565975-1.031724-1.6507578-1.1005058-2.6136999c-0.0687819-0.6190338-0.1375628-1.1692872-0.0687819-1.7883215
				c-0.7565975-1.0317235-1.3756313-2.1322291-1.8571024-3.370297C5.9773626,4.8512425,4.8080754,7.3961606,5.7710176,9.3908281z"/>
		</g>
	</g>
</g>
</svg>
