<svg xmlns="http://www.w3.org/2000/svg" viewBox="0 0 162.98792 162.98779">
  <defs>
    <style>
      .a26210e1-96df-476a-b16d-34cb34b0a868, .b9e79bf4-9408-4962-bf0e-c81bfd4fcdc7 {
        fill: none;
      }

      .b9e79bf4-9408-4962-bf0e-c81bfd4fcdc7 {
        stroke: #000;
        stroke-miterlimit: 10;
        stroke-width: 5px;
      }

      .bf0d9394-9eb0-41c4-b93e-c4cfaa2dbee7 {
        fill: #f89522;
      }
    </style>
  </defs>
  <g id="a3bb1928-cac4-46b9-a60b-715d332aa0ce" data-name="Layer 2">
    <g id="a05f1411-05aa-4c0a-a876-653ee568f21f" data-name="Layer 1">
      <g>
        <path d="M142.62771,66.72972,138.858,70.19287A28.90206,28.90206,0,1,1,99.894,97.28418a28.61969,28.61969,0,0,1,9.201-21.106l-5.02162-2.42839C97.07036,80.30745,94.61,87.73389,94.61,97.28418a34.20864,34.20864,0,0,0,25.722,33.07471A63.09787,63.09787,0,1,1,32.598,42.625,34.20933,34.20933,0,0,0,65.673,68.34717c9.551,0,16.5933-2.04533,23.15129-9.08048L86.779,53.86279A28.55565,28.55565,0,0,1,65.673,63.063,28.905,28.905,0,1,1,92.764,24.09814l3.361-3.41892C91.16,7.34182,79.902,0,65.736,0A34.2365,34.2365,0,0,0,31.548,34.189c0,.95508.063,1.87891.127,2.80225A68.3302,68.3302,0,0,0,68.347,162.98779,67.87155,67.87155,0,0,0,125.998,131.314c.923.064,1.878.127,2.801.127a34.23634,34.23634,0,0,0,34.18891-34.189c0-14.166-7.24814-25.33-20.58609-30.29635"/>
        <path d="M65.73627,15.75732a7.89421,7.89421,0,0,1,7.895,7.895h5.252a13.147,13.147,0,0,0-26.294,0v2.64209h-10.505v5.25293h10.505v5.252h-10.505v5.25293h10.505v2.64209a13.147,13.147,0,1,0,26.294,0h-5.252a7.895,7.895,0,1,1-15.79,0V42.05225h10.505V36.79932h-10.505v-5.252h10.505V26.29443h-10.505V23.65234a7.91522,7.91522,0,0,1,7.895-7.895m78.248,67.42383-4.043-3.375-11.11,13.33936-11.111-13.33936-4.074,3.375,12.542,15.02539v1.688h-10.505v5.25195h10.505v5.25293h-10.505v5.252h10.505v5.25293h5.253v-5.25293h10.505v-5.252h-10.505v-5.25293h10.505V99.89453h-10.505v-1.688Z"/>
        <path class="a26210e1-96df-476a-b16d-34cb34b0a868" d="M118.294,78.85156a34.17334,34.17334,0,1,1,34.189-34.15674,34.23577,34.23577,0,0,1-34.189,34.15674"/>
        <path class="b9e79bf4-9408-4962-bf0e-c81bfd4fcdc7" d="M118.294,78.85156a34.17334,34.17334,0,1,1,34.189-34.15674A34.23577,34.23577,0,0,1,118.294,78.85156Z"/>
        <path d="M130.94232,57.82764h-14.611a10.418,10.418,0,0,0,1.463-5.25977V47.30811h5.258V42.04883h-5.258V37.40967a5.87817,5.87817,0,0,1,8.508-5.25977l3.461,1.73,2.355-4.70508-3.461-1.73a11.14132,11.14132,0,0,0-16.123,9.96485v4.63916h-5.261v5.25928h5.261v5.25976a5.26654,5.26654,0,0,1-5.261,5.25977v5.26025h23.669Z"/>
        <path class="bf0d9394-9eb0-41c4-b93e-c4cfaa2dbee7" d="M60.70936,135.98657v-6.79876a12.64074,12.64074,0,0,0-3.25047-24.942A6.35065,6.35065,0,1,1,63.95976,97.897H70.462a12.74234,12.74234,0,0,0-9.75263-12.24544v-6.8H54.20842v6.8a12.64116,12.64116,0,0,0,3.25047,24.942,6.35006,6.35006,0,1,1-6.50095,6.34887H44.45949a12.73732,12.73732,0,0,0,9.74893,12.24544v6.79876Z"/>
      </g>
    </g>
  </g>
</svg>
