<svg xmlns="http://www.w3.org/2000/svg" width="237.679" height="112.271" viewBox="0 0 237.679 112.271">
  <g id="Group_2545" data-name="Group 2545" transform="translate(-13.875 7.593)">
    <g id="Group_7" data-name="Group 7" transform="translate(13.876 -7.593)">
      <g id="Group_4" data-name="Group 4" transform="translate(0 15.102)">
        <g id="Group_1" data-name="Group 1">
          <path id="Path_1" data-name="Path 1" d="M112.663,80.733H100.038V35.206L84.877,76.27h-11.8L58.463,35.4V80.733h-11.9V10.257H62.9l17.16,47.927L97.732,10.257h14.931V80.733Z" transform="translate(-46.562 -10.257)" fill="#fff"/>
        </g>
        <g id="Group_2" data-name="Group 2" transform="translate(69.924)">
          <path id="Path_2" data-name="Path 2" d="M103.483,80.733H90.229V21.124H66.573V10.257h60.562V21.124H103.483V80.733Z" transform="translate(-66.573 -10.257)" fill="#fff"/>
        </g>
        <g id="Group_3" data-name="Group 3" transform="translate(133.757)">
          <path id="Path_3" data-name="Path 3" d="M98.1,80.733H84.841V10.257h41.054V21.124H98.1V39.679h23.338V50.455H98.1V80.733Z" transform="translate(-84.841 -10.257)" fill="#fff"/>
        </g>
      </g>
      <g id="Group_6" data-name="Group 6" transform="translate(136.129)">
        <g id="Group_5" data-name="Group 5">
          <path id="Path_4" data-name="Path 4" d="M114.643,10.257H97.567l18.251,32.636c3.512-5.077,6.531-9.871,9.082-14.295Z" transform="translate(-55.472 4.845)" fill="#fff"/>
          <path id="Path_5" data-name="Path 5" d="M118.872,57.3h17.076L114.9,19.652c-3.236,4.371-6.6,8.529-10.07,12.53Z" transform="translate(-37.368 28.279)" fill="#fff"/>
          <path id="Path_6" data-name="Path 6" d="M170.581,10.8c-.839,2.942-4.55,14.676-14.211,31.113-2.6,4.424-5.619,9.179-9.141,14.2-12.936,18.46-32.507,40.463-61.709,62.089,23.785-14.449,46.68-31.455,66.153-54.14,3.456-4.022,6.821-8.18,10.042-12.579A213.134,213.134,0,0,0,187.07,5.935Z" transform="translate(-85.52 -5.935)" fill="#fff"/>
        </g>
      </g>
    </g>
  </g>
</svg>
