<svg xmlns="http://www.w3.org/2000/svg" viewBox="0 0 163.05298 162.98804">
  <defs>
    <style>
      .a927a2d7-7172-463c-8f0f-a3c5609298f1 {
        fill: #f89522;
      }
    </style>
  </defs>
  <g id="b00f5a91-3f20-452a-93c0-18ce62f6dd33" data-name="Layer 2">
    <g id="a2dba6e5-a556-4c97-a19b-26d901dd9243" data-name="Layer 1">
      <g>
        <path class="a927a2d7-7172-463c-8f0f-a3c5609298f1" d="M57.842,49.94678A7.89459,7.89459,0,0,1,49.947,42.052V36.7998a7.89551,7.89551,0,0,1,15.791,0V42.052a7.89488,7.89488,0,0,1-7.896,7.89478m0,0A18.40892,18.40892,0,0,0,39.443,68.34692v.032A52.93443,52.93443,0,0,0,53.29,81.239l4.552,2.897,4.553-2.897a52.40369,52.40369,0,0,0,13.84692-12.8601v-.032A18.40909,18.40909,0,0,0,57.842,49.94678"/>
        <path d="M51.8573,83.43506l5.98511,3.821,5.985-3.821a54.93408,54.93408,0,0,0,25.563-46.572V30.11426L57.84241,10.0271l-31.547,20.08716V36.863a54.93308,54.93308,0,0,0,25.56189,46.572m-20.309-50.45581L57.84241,16.26611,84.13733,32.97925V36.863a49.77352,49.77352,0,0,1-23.143,42.14819l-3.152,2.00488-3.1521-2.00488A49.7323,49.7323,0,0,1,31.54834,36.863Zm-21.042,98.46191h5.252v5.252h-5.252Zm10.537,0h5.252v5.252h-5.252Zm10.505,0h5.25195v5.252H31.54834Z"/>
        <path d="M149.842,31.54688H147.199V0H15.75793V31.54688H13.116A13.14487,13.14487,0,0,0,0,44.69385V134.083a13.15248,13.15248,0,0,0,13.148,13.148H47.337v10.50488H36.832v5.2522H126.221v-5.2522h-10.505V147.231H149.905A13.15249,13.15249,0,0,0,163.053,134.083V44.69385a13.24694,13.24694,0,0,0-13.21094-13.147M13.148,36.7998h7.895V5.252H141.979V94.64087H21.043V42.052h-5.285V99.894H147.199V36.7998H149.842a7.89332,7.89332,0,0,1,7.8949,7.89405V126.189H48.42L43.167,120.936H5.285V44.69385a7.84508,7.84508,0,0,1,7.86292-7.894M149.842,141.9458h-92v5.2522h52.59v10.50586H52.59V141.9458H13.148a7.89279,7.89279,0,0,1-7.895-7.89477v-7.895H40.971l5.25207,5.25293H157.73694V134.051a7.89331,7.89331,0,0,1-7.8949,7.89477"/>
        <path d="M94.64136,10.50513h42.053v5.252h-42.053Zm0,10.53613h42.053v5.25293h-42.053Zm10.506,10.50586h31.547v5.252h-31.547Zm-10.506,0h5.253v5.252h-5.253Zm0,10.50513h42.053v5.252h-42.053Zm0,10.53686h42.053v5.252h-42.053Zm36.8,10.50513h5.25305v5.25293h-5.25305Zm-36.8,0h31.548v5.25293h-31.548Zm0,10.50488h42.053v5.252h-42.053Zm18.401,10.53711h5.25195v5.25293h-5.25195Zm-10.505,0h5.252v5.25293h-5.252Zm21.01,0h5.25306v5.25293h-5.25306Z"/>
      </g>
    </g>
  </g>
</svg>
