<?xml version="1.0" encoding="UTF-8"?>
<svg id="Layer_1" data-name="Layer 1" xmlns="http://www.w3.org/2000/svg" viewBox="0 0 163 162.99">
  <defs>
    <style>
      .cls-1 {
        fill: #fff;
      }

      .cls-2 {
        fill: none;
        stroke: #fff;
        stroke-miterlimit: 10;
        stroke-width: 5px;
      }
    </style>
  </defs>
  <g id="a3bb1928-cac4-46b9-a60b-715d332aa0ce">
    <g id="a05f1411-05aa-4c0a-a876-653ee568f21f">
      <g>
        <path class="cls-1" d="M142.64,66.73l-3.77,3.46c14.96,5.56,22.59,22.19,17.03,37.16-5.56,14.96-22.19,22.59-37.16,17.03-11.33-4.21-18.84-15.01-18.84-27.1-.02-8.01,3.31-15.67,9.2-21.11l-5.02-2.43c-7,6.56-9.46,13.98-9.46,23.53,.03,15.6,10.61,29.2,25.72,33.07-19.73,28.73-59.01,36.02-87.73,16.29C3.88,126.92-3.41,87.64,16.31,58.92c4.38-6.38,9.91-11.91,16.29-16.29,3.87,15.11,17.47,25.69,33.07,25.72,9.55,0,16.59-2.05,23.15-9.08l-2.05-5.4c-5.43,5.89-13.09,9.23-21.11,9.2-15.96,0-28.91-12.93-28.91-28.9,0-15.96,12.93-28.91,28.9-28.91,12.09,0,22.9,7.51,27.1,18.85l3.36-3.42C91.17,7.34,79.91,0,65.74,0,46.87,.03,31.58,15.32,31.56,34.19c0,.96,.06,1.88,.13,2.8C-.16,57.24-9.57,99.46,10.67,131.31c12.54,19.73,34.3,31.68,57.68,31.67,23.39,.08,45.18-11.89,57.65-31.67,.92,.06,1.88,.13,2.8,.13,18.87-.03,34.16-15.32,34.19-34.19,0-14.17-7.25-25.33-20.59-30.3"/>
        <path class="cls-1" d="M65.74,15.76c4.36,0,7.89,3.53,7.89,7.89h0s5.25,0,5.25,0c0-7.26-5.89-13.14-13.15-13.14-7.26,0-13.14,5.89-13.14,13.14v2.64h-10.51v5.25h10.51v5.25h-10.51v5.25h10.51v2.64c0,7.26,5.88,13.15,13.14,13.15,7.26,0,13.15-5.88,13.15-13.14h0s-5.25,0-5.25,0c0,4.36-3.53,7.9-7.89,7.9s-7.9-3.53-7.9-7.9v-2.64h10.5v-5.25h-10.51v-5.25h10.51v-5.25h-10.51v-2.64c.01-4.36,3.54-7.88,7.9-7.9m78.25,67.42l-4.04-3.38-11.11,13.34-11.11-13.34-4.07,3.38,12.54,15.03v1.69h-10.5v5.25h10.5v5.25h-10.5v5.25h10.5v5.25h5.25v-5.25h10.51v-5.25h-10.51v-5.25h10.51v-5.25h-10.51v-1.69l12.54-15.03Z"/>
        <path class="cls-1" d="M118.3,78.85c-18.87,0-34.17-15.32-34.16-34.19S99.46,10.5,118.33,10.5s34.17,15.32,34.16,34.19h0c-.04,18.86-15.33,34.13-34.19,34.16"/>
        <path class="cls-2" d="M118.3,78.85c-18.87,0-34.17-15.32-34.16-34.19S99.46,10.5,118.33,10.5s34.17,15.32,34.16,34.19h0c-.04,18.86-15.33,34.13-34.19,34.16Z"/>
        <path class="cls-1" d="M130.95,57.83h-14.61c.95-1.59,1.45-3.41,1.46-5.26v-5.26h5.26v-5.26h-5.26v-4.64c0-3.25,2.63-5.88,5.88-5.88,.91,0,1.82,.21,2.63,.62l3.46,1.73,2.35-4.71-3.46-1.73c-5.5-2.75-12.2-.52-14.95,4.98-.77,1.55-1.18,3.25-1.18,4.98v4.64h-5.26v5.26h5.26v5.26c0,2.9-2.36,5.26-5.26,5.26v5.26h23.67v-5.26Z"/>
        <path class="cls-1" d="M60.72,135.99v-6.8c6.8-1.59,11.01-8.4,9.42-15.19-1.37-5.85-6.67-9.92-12.67-9.75-3.51-.08-6.28-2.99-6.2-6.5,.08-3.51,2.99-6.28,6.5-6.2,3.45,.08,6.2,2.9,6.2,6.35h6.5c-.06-5.83-4.08-10.88-9.75-12.25v-6.8h-6.5v6.8c-6.8,1.6-11.01,8.4-9.41,15.2,1.37,5.84,6.67,9.91,12.66,9.74,3.51,.08,6.28,2.99,6.2,6.5-.08,3.51-2.99,6.28-6.5,6.2-3.45-.08-6.2-2.9-6.2-6.35h-6.5c.06,5.83,4.08,10.88,9.75,12.25v6.8h6.5Z"/>
      </g>
    </g>
  </g>
</svg>